<?xml version="1.0" encoding="UTF-8" standalone="no"?><!DOCTYPE svg PUBLIC "-//W3C//DTD SVG 1.1//EN" "http://www.w3.org/Graphics/SVG/1.1/DTD/svg11.dtd"><svg width="100%" height="100%" viewBox="0 0 267 267" version="1.1" xmlns="http://www.w3.org/2000/svg" xmlns:xlink="http://www.w3.org/1999/xlink" xml:space="preserve" xmlns:serif="http://www.serif.com/" style="fill-rule:evenodd;clip-rule:evenodd;stroke-linejoin:round;stroke-miterlimit:2;"><rect x="0" y="0" width="75" height="266.25" style="fill:#032147;"/><path d="M266.25,75l0,-75l-266.25,0l0,75l266.25,0Z" style="fill:#032147;"/><path d="M266.25,266.25l-75,0l0,-75l75,0l0,75Zm0,-112.5l-75,0l0,-153.75l75,0l0,153.75Z" style="fill:#032147;"/><circle cx="133.125" cy="133.125" r="37.5" style="fill:#032147;"/><path d="M0,191.25l75,0l0,75l-75,0l0,-75Zm266.25,75l-191.25,0l37.5,0l0,-75l153.75,0l0,75Z" style="fill:#032147;"/></svg>